<svg width="50" height="50" viewBox="0 0 50 50" fill="none" xmlns="http://www.w3.org/2000/svg">
<path d="M25.37 25.5046L18.8776 18.4264L15.3062 22.2287L25.37 33.6941L50 7.76048L45.4978 4.21167L25.37 25.5046Z" fill="#BAB1E3"/>
<path d="M43.2367 23.174C43.6397 27.6416 42.5527 32.1173 40.1555 35.8607C37.7583 39.6041 34.1945 42.391 30.0537 43.7603C25.9129 45.1296 21.4432 44.9992 17.3839 43.3909C13.3246 41.7825 9.91907 38.7924 7.73055 34.9152C5.54203 31.0381 4.7017 26.5062 5.34857 22.0693C5.99543 17.6323 8.09073 13.5561 11.2879 10.5151C14.485 7.47396 18.5924 5.65016 22.9306 5.34536C27.2688 5.04056 31.5778 6.27301 35.1449 8.83884L32.0106 13.4786C29.4676 11.6494 26.3956 10.7708 23.3029 10.988C20.2102 11.2053 17.282 12.5055 15.0027 14.6736C12.7235 16.8416 11.2297 19.7475 10.7686 22.9106C10.3074 26.0738 10.9065 29.3046 12.4667 32.0686C14.0269 34.8327 16.4548 36.9643 19.3487 38.111C22.2425 39.2576 25.429 39.3505 28.3811 38.3743C31.3331 37.3981 33.8737 35.4114 35.5827 32.7427C37.2917 30.0739 38.0666 26.8832 37.7793 23.6982L43.2367 23.174Z" fill="#BAB1E3"/>
</svg>
