<svg width="42" height="63" viewBox="0 0 42 63" fill="none" xmlns="http://www.w3.org/2000/svg">
<path fill-rule="evenodd" clip-rule="evenodd" d="M21 0.833328C32.2759 0.833328 41.4167 9.97418 41.4167 21.25C41.4167 24.6593 40.5834 27.8717 39.104 30.6983L21 62.0833L3.31545 31.4595C1.57504 28.4542 0.583374 24.9692 0.583374 21.25C0.583374 9.97418 9.72423 0.833328 21 0.833328ZM21 6.66666C12.9459 6.66666 6.41671 13.1958 6.41671 21.25C6.41671 23.566 6.95099 25.7882 7.96204 27.7943L8.45203 28.6893L21 50.4167L33.6367 28.5362C34.9072 26.3423 35.5834 23.8555 35.5834 21.25C35.5834 13.1958 29.0542 6.66666 21 6.66666ZM21 12.5C25.8325 12.5 29.75 16.4175 29.75 21.25C29.75 26.0825 25.8325 30 21 30C16.1675 30 12.25 26.0825 12.25 21.25C12.25 16.4175 16.1675 12.5 21 12.5ZM21 18.3333C19.3892 18.3333 18.0834 19.6392 18.0834 21.25C18.0834 22.8608 19.3892 24.1667 21 24.1667C22.6109 24.1667 23.9167 22.8608 23.9167 21.25C23.9167 19.6392 22.6109 18.3333 21 18.3333Z" fill="#C0B7E8"/>
</svg>
