<svg width="212" height="40" viewBox="0 0 212 40" fill="none" xmlns="http://www.w3.org/2000/svg">
<circle cx="20" cy="20" r="20" fill="#FEF9F9"/>
<path d="M24.626 21.709L27.248 16.8018C28.5469 14.3994 29.582 12.3975 30.3535 10.7959C30.5586 10.3662 30.7197 10.083 30.8369 9.94629C30.9639 9.7998 31.1152 9.72656 31.291 9.72656C31.457 9.72656 31.6035 9.78516 31.7305 9.90234C31.8574 10.0098 31.9209 10.1416 31.9209 10.2979C31.9209 10.4639 31.8184 10.7275 31.6133 11.0889C31.5645 11.1768 31.5156 11.2598 31.4668 11.3379C31.3691 11.4941 31.2422 11.7139 31.0859 11.9971L20.2461 31.5381L7.73633 10.0049H18.0049L24.626 21.709Z" fill="#302C42"/>
<path d="M61.23 22.0908L63.415 18.0015C64.4974 15.9995 65.36 14.3312 66.0029 12.9966C66.1738 12.6385 66.3081 12.4025 66.4058 12.2886C66.5116 12.1665 66.6377 12.1055 66.7842 12.1055C66.9225 12.1055 67.0446 12.1543 67.1504 12.252C67.2562 12.3415 67.3091 12.4513 67.3091 12.5815C67.3091 12.7199 67.2236 12.9396 67.0527 13.2407C67.012 13.314 66.9714 13.3831 66.9307 13.4482C66.8493 13.5785 66.7435 13.7616 66.6133 13.9976L57.5801 30.2817L47.1553 12.3374H55.7124L61.23 22.0908ZM71.2545 29H68.7795V15.25H71.2545V29ZM82.4586 29H79.9586V17.725H73.3336V15.25H89.0586V17.725H82.4586V29ZM106.233 29H103.733V25.225H94.108V22.675H103.733V17.725H97.233C96.4163 17.725 95.6747 17.925 95.008 18.325C94.3413 18.725 93.808 19.2583 93.408 19.925C93.008 20.575 92.808 21.3083 92.808 22.125V29H90.283V22.125C90.283 21.175 90.458 20.2833 90.808 19.45C91.1747 18.6 91.6747 17.8583 92.308 17.225C92.958 16.5917 93.6997 16.1 94.533 15.75C95.383 15.3833 96.283 15.2 97.233 15.2H106.233V29Z" fill="#A299CD"/>
<path d="M129.469 24C129.469 24.9167 129.244 25.7583 128.794 26.525C128.344 27.275 127.744 27.875 126.994 28.325C126.244 28.775 125.402 29 124.469 29H109.269V26.5H124.469C125.169 26.5 125.761 26.2583 126.244 25.775C126.727 25.275 126.969 24.6833 126.969 24C126.969 23.3167 126.727 22.7333 126.244 22.25C125.761 21.75 125.169 21.5 124.469 21.5H114.269C113.352 21.5 112.511 21.275 111.744 20.825C110.994 20.375 110.394 19.775 109.944 19.025C109.494 18.2583 109.269 17.4167 109.269 16.5C109.269 15.5833 109.494 14.75 109.944 14C110.394 13.2333 110.994 12.625 111.744 12.175C112.511 11.725 113.352 11.5 114.269 11.5H128.219V14H114.269C113.586 14 112.994 14.25 112.494 14.75C112.011 15.2333 111.769 15.8167 111.769 16.5C111.769 17.1833 112.011 17.775 112.494 18.275C112.994 18.7583 113.586 19 114.269 19H124.469C125.402 19 126.244 19.225 126.994 19.675C127.744 20.125 128.344 20.7333 128.794 21.5C129.244 22.25 129.469 23.0833 129.469 24ZM148.285 22.1C148.285 23.3667 148.018 24.525 147.485 25.575C146.968 26.6083 146.235 27.4417 145.285 28.075C144.335 28.6917 143.227 29 141.96 29H137.61C136.343 29 135.227 28.6917 134.26 28.075C133.31 27.4417 132.568 26.6083 132.035 25.575C131.518 24.525 131.26 23.3667 131.26 22.1C131.26 20.8333 131.518 19.6833 132.035 18.65C132.568 17.6167 133.31 16.7917 134.26 16.175C135.227 15.5583 136.343 15.25 137.61 15.25H141.96C143.227 15.25 144.335 15.5583 145.285 16.175C146.235 16.7917 146.968 17.6167 147.485 18.65C148.018 19.6833 148.285 20.8333 148.285 22.1ZM145.785 22.1C145.785 21.3 145.635 20.5667 145.335 19.9C145.035 19.2333 144.593 18.7083 144.01 18.325C143.443 17.925 142.76 17.725 141.96 17.725H137.61C136.81 17.725 136.118 17.925 135.535 18.325C134.968 18.7083 134.527 19.2333 134.21 19.9C133.91 20.5667 133.76 21.3 133.76 22.1C133.76 22.9 133.91 23.6333 134.21 24.3C134.527 24.9667 134.968 25.5 135.535 25.9C136.118 26.3 136.81 26.5 137.61 26.5H141.96C142.76 26.5 143.443 26.3 144.01 25.9C144.593 25.5 145.035 24.9667 145.335 24.3C145.635 23.6333 145.785 22.9 145.785 22.1ZM165.43 17.725H153.58V29H151.055V15.2H165.43V17.725ZM163.805 23.3H154.755V20.775H163.805V23.3ZM175.33 29H172.83V17.725H166.205V15.25H181.93V17.725H175.33V29Z" fill="white"/>
</svg>
