<svg width="212" height="40" viewBox="0 0 212 40" fill="none" xmlns="http://www.w3.org/2000/svg">
<circle cx="20" cy="20" r="20" fill="#FEF9F9"/>
<path d="M24.626 21.709L27.248 16.8018C28.5469 14.3994 29.582 12.3975 30.3535 10.7959C30.5586 10.3662 30.7197 10.083 30.8369 9.94629C30.9639 9.7998 31.1152 9.72656 31.291 9.72656C31.457 9.72656 31.6035 9.78516 31.7305 9.90234C31.8574 10.0098 31.9209 10.1416 31.9209 10.2979C31.9209 10.4639 31.8184 10.7275 31.6133 11.0889C31.5645 11.1768 31.5156 11.2598 31.4668 11.3379C31.3691 11.4941 31.2422 11.7139 31.0859 11.9971L20.2461 31.5381L7.73633 10.0049H18.0049L24.626 21.709Z" fill="#302C42"/>
<path d="M68.0479 11.5L58.8479 29H55.9979L46.7979 11.5H49.6479L57.4229 26.3L65.1979 11.5H68.0479ZM71.4742 29H68.9992V15.25H71.4742V29ZM82.6783 29H80.1783V17.725H73.5533V15.25H89.2783V17.725H82.6783V29ZM106.453 29H103.953V25.225H94.3277V22.675H103.953V17.725H97.4527C96.6361 17.725 95.8944 17.925 95.2277 18.325C94.5611 18.725 94.0277 19.2583 93.6277 19.925C93.2277 20.575 93.0277 21.3083 93.0277 22.125V29H90.5027V22.125C90.5027 21.175 90.6777 20.2833 91.0277 19.45C91.3944 18.6 91.8944 17.8583 92.5277 17.225C93.1777 16.5917 93.9194 16.1 94.7527 15.75C95.6027 15.3833 96.5027 15.2 97.4527 15.2H106.453V29Z" fill="#B2A9DB"/>
<path d="M129.689 24C129.689 24.9167 129.464 25.7583 129.014 26.525C128.564 27.275 127.964 27.875 127.214 28.325C126.464 28.775 125.622 29 124.689 29H109.489V26.5H124.689C125.389 26.5 125.98 26.2583 126.464 25.775C126.947 25.275 127.189 24.6833 127.189 24C127.189 23.3167 126.947 22.7333 126.464 22.25C125.98 21.75 125.389 21.5 124.689 21.5H114.489C113.572 21.5 112.73 21.275 111.964 20.825C111.214 20.375 110.614 19.775 110.164 19.025C109.714 18.2583 109.489 17.4167 109.489 16.5C109.489 15.5833 109.714 14.75 110.164 14C110.614 13.2333 111.214 12.625 111.964 12.175C112.73 11.725 113.572 11.5 114.489 11.5H128.439V14H114.489C113.805 14 113.214 14.25 112.714 14.75C112.23 15.2333 111.989 15.8167 111.989 16.5C111.989 17.1833 112.23 17.775 112.714 18.275C113.214 18.7583 113.805 19 114.489 19H124.689C125.622 19 126.464 19.225 127.214 19.675C127.964 20.125 128.564 20.7333 129.014 21.5C129.464 22.25 129.689 23.0833 129.689 24ZM148.505 22.1C148.505 23.3667 148.238 24.525 147.705 25.575C147.188 26.6083 146.455 27.4417 145.505 28.075C144.555 28.6917 143.447 29 142.18 29H137.83C136.563 29 135.447 28.6917 134.48 28.075C133.53 27.4417 132.788 26.6083 132.255 25.575C131.738 24.525 131.48 23.3667 131.48 22.1C131.48 20.8333 131.738 19.6833 132.255 18.65C132.788 17.6167 133.53 16.7917 134.48 16.175C135.447 15.5583 136.563 15.25 137.83 15.25H142.18C143.447 15.25 144.555 15.5583 145.505 16.175C146.455 16.7917 147.188 17.6167 147.705 18.65C148.238 19.6833 148.505 20.8333 148.505 22.1ZM146.005 22.1C146.005 21.3 145.855 20.5667 145.555 19.9C145.255 19.2333 144.813 18.7083 144.23 18.325C143.663 17.925 142.98 17.725 142.18 17.725H137.83C137.03 17.725 136.338 17.925 135.755 18.325C135.188 18.7083 134.747 19.2333 134.43 19.9C134.13 20.5667 133.98 21.3 133.98 22.1C133.98 22.9 134.13 23.6333 134.43 24.3C134.747 24.9667 135.188 25.5 135.755 25.9C136.338 26.3 137.03 26.5 137.83 26.5H142.18C142.98 26.5 143.663 26.3 144.23 25.9C144.813 25.5 145.255 24.9667 145.555 24.3C145.855 23.6333 146.005 22.9 146.005 22.1ZM165.65 17.725H153.8V29H151.275V15.2H165.65V17.725ZM164.025 23.3H154.975V20.775H164.025V23.3ZM175.549 29H173.049V17.725H166.424V15.25H182.149V17.725H175.549V29Z" fill="white"/>
</svg>
