<svg width="51" height="51" viewBox="0 0 51 51" fill="none" xmlns="http://www.w3.org/2000/svg">
<path d="M31.6458 11.9792C33.458 12.3327 35.2569 13.1319 36.5625 14.4375C37.868 15.7431 38.6672 17.542 39.0208 19.3542M32.875 3.375C36.64 3.79326 40.028 5.61471 42.7083 8.29167C45.3886 10.9686 47.202 14.3605 47.625 18.125M47.6236 36.5051V43.1666C47.634 45.7131 45.3443 47.8395 42.7733 47.6077C20.5835 47.625 3.37512 30.2568 3.39249 8.21591C3.16094 5.65866 5.27683 3.37761 7.82005 3.37522H14.4948C15.5745 3.36461 16.6213 3.74621 17.44 4.4489C19.7676 6.44667 21.2647 13.2274 20.6887 15.923C20.239 18.0276 18.1175 19.4999 16.6752 20.9394C19.8425 26.4985 24.4545 31.1014 30.0246 34.2624C31.4669 32.823 32.9422 30.7057 35.051 30.2568C37.7561 29.6811 44.5804 31.1803 46.5702 33.5241C47.2758 34.3552 47.6507 35.4161 47.6236 36.5051Z" stroke="#C0B7E8" stroke-width="6" stroke-linecap="round" stroke-linejoin="round"/>
</svg>
